<svg width="443" height="87" viewBox="0 0 443 87" fill="none" xmlns="http://www.w3.org/2000/svg">
<path d="M95.9883 66.1289C95.918 66.1758 95.6016 66.3398 95.0391 66.6211C94.4766 66.9023 93.7383 67.207 92.8242 67.5352C91.9102 67.8633 90.8672 68.1562 89.6953 68.4141C88.5234 68.6953 87.3047 68.8359 86.0391 68.8359C83.9766 68.8359 82.125 68.4727 80.4844 67.7461C78.8438 67.0195 77.4492 65.9883 76.3008 64.6523C75.1758 63.3398 74.3086 61.7461 73.6992 59.8711C73.0898 58.0195 72.7852 55.957 72.7852 53.6836C72.7852 51.5039 73.0547 49.1133 73.5938 46.5117C74.1328 43.8867 74.8359 41.1914 75.7031 38.4258C76.5703 35.6602 77.543 32.8945 78.6211 30.1289C79.7227 27.3633 80.8242 24.7383 81.9258 22.2539C83.0508 19.7461 84.1172 17.4609 85.125 15.3984C86.1328 13.3125 87 11.5781 87.7266 10.1953C86.4141 11.6953 84.9141 13.4297 83.2266 15.3984C81.5391 17.3437 79.7344 19.4883 77.8125 21.832C75.9141 24.1523 73.9336 26.6367 71.8711 29.2852C69.8086 31.9102 67.7227 34.6523 65.6133 37.5117C63.5273 40.3477 61.4531 43.2656 59.3906 46.2656C57.3281 49.2422 55.3594 52.2422 53.4844 55.2656L51.7969 54.7031C52.1484 50.8828 52.7227 47.0977 53.5195 43.3477C54.3398 39.5742 55.2539 35.9531 56.2617 32.4844C57.293 28.9922 58.3711 25.7227 59.4961 22.6758C60.6445 19.6055 61.7344 16.8633 62.7656 14.4492C61.1953 16.6055 59.625 18.9492 58.0547 21.4805C56.5078 23.9883 54.9375 26.5781 53.3438 29.25C51.75 31.8984 50.1094 34.5703 48.4219 37.2656C46.7344 39.9375 44.9766 42.5156 43.1484 45C41.3203 47.4609 39.3867 49.7695 37.3477 51.9258C35.332 54.0586 33.1758 55.9102 30.8789 57.4805C28.6055 59.0742 26.168 60.3281 23.5664 61.2422C20.9883 62.1562 18.2227 62.6133 15.2695 62.6133C12.9961 62.6133 10.9336 62.2734 9.08203 61.5938C7.23047 60.9141 5.63672 59.9766 4.30078 58.7812C2.98828 57.6094 1.98047 56.2266 1.27734 54.6328C0.550781 53.0391 0.1875 51.3164 0.1875 49.4648C0.1875 47.6602 0.480469 46.0312 1.06641 44.5781C1.62891 43.1016 2.39062 41.8008 3.35156 40.6758C4.3125 39.5273 5.42578 38.543 6.69141 37.7227C7.98047 36.8789 9.32812 36.1875 10.7344 35.6484C12.1406 35.1094 13.5586 34.7109 14.9883 34.4531C16.4414 34.1953 17.8242 34.0664 19.1367 34.0664C21.8555 34.0664 24.457 34.3945 26.9414 35.0508C29.4258 35.6836 31.8164 36.8203 34.1133 38.4609L32.8828 39.832C32.8594 39.8086 32.5547 39.5977 31.9688 39.1992C31.3828 38.7773 30.5391 38.3203 29.4375 37.8281C28.3359 37.3359 26.9648 36.8906 25.3242 36.4922C23.707 36.0938 21.8555 35.8945 19.7695 35.8945C17.7539 35.8945 15.7969 36.1641 13.8984 36.7031C12.0234 37.2422 10.3594 38.0625 8.90625 39.1641C7.47656 40.2422 6.32812 41.6133 5.46094 43.2773C4.59375 44.918 4.16016 46.8516 4.16016 49.0781C4.16016 50.6719 4.46484 52.1484 5.07422 53.5078C5.70703 54.8672 6.57422 56.0391 7.67578 57.0234C8.77734 58.0312 10.1016 58.8164 11.6484 59.3789C13.1953 59.9414 14.9062 60.2227 16.7812 60.2227C19.5938 60.2227 22.2891 59.625 24.8672 58.4297C27.4453 57.2344 29.9297 55.6172 32.3203 53.5781C34.7109 51.5391 37.0078 49.1602 39.2109 46.4414C41.4375 43.7227 43.5703 40.8516 45.6094 37.8281C47.6719 34.8047 49.6641 31.6992 51.5859 28.5117C53.5078 25.3242 55.3711 22.2539 57.1758 19.3008C58.9805 16.3242 60.7383 13.5469 62.4492 10.9688C64.1602 8.36719 65.8359 6.12891 67.4766 4.25391L69.0586 5.20312C68.0273 8.34375 67.1367 11.1094 66.3867 13.5C65.6367 15.8672 64.9805 17.9531 64.418 19.7578C63.8789 21.5625 63.4102 23.1211 63.0117 24.4336C62.6367 25.7461 62.3086 26.918 62.0273 27.9492C61.7461 28.9805 61.4883 29.918 61.2539 30.7617C61.043 31.582 60.8203 32.4023 60.5859 33.2227C60.375 34.043 60.1289 34.9102 59.8477 35.8242C59.5664 36.7383 59.2266 37.8047 58.8281 39.0234C58.4297 40.2188 57.9609 41.6133 57.4219 43.207C56.8828 44.7773 56.2266 46.6406 55.4531 48.7969C57.4219 45.8203 59.4375 42.8906 61.5 40.0078C63.5859 37.125 65.6602 34.3359 67.7227 31.6406C69.7852 28.9453 71.8008 26.3672 73.7695 23.9062C75.7617 21.4453 77.6367 19.1602 79.3945 17.0508C81.1758 14.9414 82.8047 13.0313 84.2812 11.3203C85.7812 9.58594 87.082 8.10938 88.1836 6.89062C89.2852 5.67187 90.1406 4.72266 90.75 4.04297C91.3828 3.36328 91.7109 3.01172 91.7344 2.98828L93.2109 4.07812C91.8281 7.5 90.457 10.9336 89.0977 14.3789C87.7383 17.8008 86.4258 21.1406 85.1602 24.3984C83.918 27.6562 82.7578 30.7969 81.6797 33.8203C80.6016 36.8438 79.6641 39.6797 78.8672 42.3281C78.0703 44.9531 77.4375 47.3555 76.9688 49.5352C76.5234 51.6914 76.3008 53.543 76.3008 55.0898C76.3008 56.918 76.5117 58.5703 76.9336 60.0469C77.3789 61.5234 78.0117 62.7773 78.832 63.8086C79.6523 64.8398 80.6602 65.625 81.8555 66.1641C83.0742 66.7266 84.4453 67.0078 85.9688 67.0078C87.1172 67.0078 88.2305 66.8789 89.3086 66.6211C90.4102 66.3633 91.3828 66.082 92.2266 65.7773C93.0703 65.4727 93.75 65.1914 94.2656 64.9336C94.7812 64.6758 95.0508 64.5469 95.0742 64.5469L95.9883 66.1289ZM117.996 30.6211C117.691 31.2305 117.258 32.0273 116.695 33.0117C116.156 33.9961 115.57 35.0859 114.938 36.2812C114.305 37.4531 113.66 38.6836 113.004 39.9727C112.371 41.2617 111.785 42.5273 111.246 43.7695C110.73 44.9883 110.297 46.1484 109.945 47.25C109.617 48.3281 109.453 49.2422 109.453 49.9922C109.453 50.7422 109.594 51.2344 109.875 51.4688C110.18 51.6797 110.566 51.7852 111.035 51.7852C111.715 51.7852 112.406 51.5859 113.109 51.1875C113.836 50.7891 114.539 50.2734 115.219 49.6406C115.922 49.0078 116.602 48.293 117.258 47.4961C117.914 46.6992 118.523 45.9023 119.086 45.1055C119.672 44.2852 120.199 43.5117 120.668 42.7852C121.137 42.0352 121.535 41.4023 121.863 40.8867L123.129 41.8711C122.73 42.6211 122.262 43.4297 121.723 44.2969C121.184 45.1641 120.586 46.043 119.93 46.9336C119.297 47.8008 118.605 48.6445 117.855 49.4648C117.105 50.2852 116.309 51.0117 115.465 51.6445C114.645 52.2773 113.777 52.7812 112.863 53.1562C111.949 53.5312 111.012 53.7188 110.051 53.7188C108.645 53.7188 107.613 53.2969 106.957 52.4531C106.301 51.6094 105.973 50.5195 105.973 49.1836C105.973 49.0898 105.973 48.8906 105.973 48.5859C105.996 48.2578 106.031 48 106.078 47.8125C104.906 49.2891 103.781 50.5078 102.703 51.4688C101.648 52.4297 100.617 53.1914 99.6094 53.7539C98.625 54.3164 97.6641 54.7031 96.7266 54.9141C95.8125 55.1484 94.9336 55.2656 94.0898 55.2656C93.1992 55.2656 92.3555 55.1133 91.5586 54.8086C90.7852 54.5273 90.1055 54.1055 89.5195 53.543C88.9102 52.9805 88.4414 52.2891 88.1133 51.4688C87.7617 50.6484 87.5859 49.6992 87.5859 48.6211C87.5859 47.2852 87.8906 45.7617 88.5 44.0508C89.0859 42.3164 90.1406 40.4531 91.6641 38.4609C92.9531 36.75 94.2891 35.3086 95.6719 34.1367C97.0781 32.9648 98.4492 32.0273 99.7852 31.3242C101.145 30.5977 102.434 30.082 103.652 29.7773C104.871 29.4727 105.961 29.3203 106.922 29.3203C109.078 29.3203 110.707 29.6836 111.809 30.4102C112.91 31.1133 113.578 32.2031 113.812 33.6797C114.281 33.0938 114.773 32.5078 115.289 31.9219C115.805 31.3359 116.332 30.7383 116.871 30.1289L117.996 30.6211ZM107.203 43.9805C107.508 43.4883 107.883 42.8672 108.328 42.1172C108.773 41.3438 109.242 40.5586 109.734 39.7617C110.227 38.9414 110.707 38.1562 111.176 37.4062C111.645 36.6562 112.055 36.0234 112.406 35.5078C112.406 35.2969 112.371 34.957 112.301 34.4883C112.254 34.0195 112.102 33.5508 111.844 33.082C111.586 32.5898 111.176 32.168 110.613 31.8164C110.051 31.4648 109.266 31.2891 108.258 31.2891C107.531 31.2891 106.711 31.4062 105.797 31.6406C104.906 31.8516 103.945 32.2266 102.914 32.7656C101.906 33.2812 100.863 33.9727 99.7852 34.8398C98.707 35.707 97.6289 36.7852 96.5508 38.0742C94.9336 40.0195 93.6797 41.9766 92.7891 43.9453C91.9219 45.8906 91.4883 47.6484 91.4883 49.2188C91.4883 50.5547 91.793 51.5859 92.4023 52.3125C93.0117 53.0391 93.8789 53.4023 95.0039 53.4023C96.293 53.4023 97.5 53.1211 98.625 52.5586C99.75 51.9727 100.805 51.2227 101.789 50.3086C102.773 49.3945 103.711 48.3867 104.602 47.2852C105.492 46.1602 106.359 45.0586 107.203 43.9805ZM126.68 40.2539C127.922 38.5664 129.211 37.0195 130.547 35.6133C131.883 34.1836 133.23 32.9531 134.59 31.9219C135.949 30.8906 137.285 30.0938 138.598 29.5312C139.934 28.9453 141.223 28.6523 142.465 28.6523C143.309 28.6523 144 28.7812 144.539 29.0391C145.102 29.2969 145.535 29.6367 145.84 30.0586C146.168 30.457 146.391 30.9023 146.508 31.3945C146.648 31.8867 146.719 32.3789 146.719 32.8711C146.719 33.7148 146.543 34.6289 146.191 35.6133C145.84 36.5742 145.395 37.582 144.855 38.6367C144.34 39.6914 143.777 40.7695 143.168 41.8711C142.559 42.9727 141.984 44.0508 141.445 45.1055C140.93 46.1602 140.496 47.1914 140.145 48.1992C139.793 49.1836 139.617 50.1094 139.617 50.9766C139.617 51.5156 139.734 52.0195 139.969 52.4883C140.227 52.9336 140.672 53.1562 141.305 53.1562C142.055 53.1562 142.887 52.7812 143.801 52.0312C144.715 51.2578 145.641 50.2852 146.578 49.1133C147.539 47.918 148.488 46.5938 149.426 45.1406C150.387 43.6875 151.277 42.2695 152.098 40.8867L153.363 41.8711C153.105 42.2227 152.754 42.7969 152.309 43.5938C151.863 44.3672 151.336 45.2461 150.727 46.2305C150.141 47.1914 149.473 48.1875 148.723 49.2188C147.996 50.25 147.211 51.1992 146.367 52.0664C145.547 52.9102 144.68 53.6016 143.766 54.1406C142.852 54.7031 141.926 54.9844 140.988 54.9844C140.379 54.9844 139.77 54.9141 139.16 54.7734C138.551 54.6328 138 54.375 137.508 54C137.016 53.625 136.617 53.1211 136.312 52.4883C136.008 51.832 135.855 51.0117 135.855 50.0273C135.855 48.8789 136.043 47.7188 136.418 46.5469C136.816 45.3516 137.297 44.1797 137.859 43.0312C138.445 41.8594 139.078 40.7344 139.758 39.6562C140.438 38.5547 141.059 37.5234 141.621 36.5625C142.207 35.6016 142.688 34.7344 143.062 33.9609C143.461 33.1641 143.66 32.4961 143.66 31.957C143.66 30.9961 143.191 30.5156 142.254 30.5156C140.918 30.5156 139.5 30.9609 138 31.8516C136.523 32.7188 135.035 33.8555 133.535 35.2617C132.035 36.668 130.559 38.25 129.105 40.0078C127.652 41.7422 126.293 43.4766 125.027 45.2109L119.684 55.2656L116.484 54C119.461 47.5078 122.32 41.0977 125.062 34.7695C127.828 28.418 130.664 22.1484 133.57 15.9609C134.016 15 134.531 13.957 135.117 12.832C135.727 11.707 136.371 10.582 137.051 9.45703C137.754 8.33203 138.504 7.25391 139.301 6.22266C140.098 5.19141 140.918 4.27734 141.762 3.48047C142.605 2.68359 143.473 2.05078 144.363 1.58203C145.277 1.08984 146.191 0.84375 147.105 0.84375C148.137 0.84375 148.934 1.13672 149.496 1.72266C150.082 2.28516 150.375 3.09375 150.375 4.14844C150.375 5.25 150.082 6.50391 149.496 7.91016C148.91 9.29297 148.125 10.7578 147.141 12.3047C146.156 13.8516 145.008 15.4453 143.695 17.0859C142.406 18.7266 141.035 20.3555 139.582 21.9727C138.152 23.5898 136.699 25.1602 135.223 26.6836C133.746 28.1836 132.328 29.5781 130.969 30.8672L126.68 40.2539ZM147.281 2.70703C146.227 2.70703 145.254 3.11719 144.363 3.9375C143.496 4.73438 142.547 6.05859 141.516 7.91016C140.484 9.76172 139.301 12.1758 137.965 15.1523C136.629 18.1289 135 21.7852 133.078 26.1211C135.656 23.6133 137.906 21.1875 139.828 18.8438C141.773 16.4766 143.391 14.3203 144.68 12.375C145.969 10.4297 146.93 8.74219 147.562 7.3125C148.219 5.85938 148.547 4.78125 148.547 4.07812C148.547 3.65625 148.43 3.32813 148.195 3.09375C147.961 2.83594 147.656 2.70703 147.281 2.70703ZM180.082 30.6211C179.777 31.2305 179.344 32.0273 178.781 33.0117C178.242 33.9961 177.656 35.0859 177.023 36.2812C176.391 37.4531 175.746 38.6836 175.09 39.9727C174.457 41.2617 173.871 42.5273 173.332 43.7695C172.816 44.9883 172.383 46.1484 172.031 47.25C171.703 48.3281 171.539 49.2422 171.539 49.9922C171.539 50.7422 171.68 51.2344 171.961 51.4688C172.266 51.6797 172.652 51.7852 173.121 51.7852C173.801 51.7852 174.492 51.5859 175.195 51.1875C175.922 50.7891 176.625 50.2734 177.305 49.6406C178.008 49.0078 178.688 48.293 179.344 47.4961C180 46.6992 180.609 45.9023 181.172 45.1055C181.758 44.2852 182.285 43.5117 182.754 42.7852C183.223 42.0352 183.621 41.4023 183.949 40.8867L185.215 41.8711C184.816 42.6211 184.348 43.4297 183.809 44.2969C183.27 45.1641 182.672 46.043 182.016 46.9336C181.383 47.8008 180.691 48.6445 179.941 49.4648C179.191 50.2852 178.395 51.0117 177.551 51.6445C176.73 52.2773 175.863 52.7812 174.949 53.1562C174.035 53.5312 173.098 53.7188 172.137 53.7188C170.73 53.7188 169.699 53.2969 169.043 52.4531C168.387 51.6094 168.059 50.5195 168.059 49.1836C168.059 49.0898 168.059 48.8906 168.059 48.5859C168.082 48.2578 168.117 48 168.164 47.8125C166.992 49.2891 165.867 50.5078 164.789 51.4688C163.734 52.4297 162.703 53.1914 161.695 53.7539C160.711 54.3164 159.75 54.7031 158.812 54.9141C157.898 55.1484 157.02 55.2656 156.176 55.2656C155.285 55.2656 154.441 55.1133 153.645 54.8086C152.871 54.5273 152.191 54.1055 151.605 53.543C150.996 52.9805 150.527 52.2891 150.199 51.4688C149.848 50.6484 149.672 49.6992 149.672 48.6211C149.672 47.2852 149.977 45.7617 150.586 44.0508C151.172 42.3164 152.227 40.4531 153.75 38.4609C155.039 36.75 156.375 35.3086 157.758 34.1367C159.164 32.9648 160.535 32.0273 161.871 31.3242C163.23 30.5977 164.52 30.082 165.738 29.7773C166.957 29.4727 168.047 29.3203 169.008 29.3203C171.164 29.3203 172.793 29.6836 173.895 30.4102C174.996 31.1133 175.664 32.2031 175.898 33.6797C176.367 33.0938 176.859 32.5078 177.375 31.9219C177.891 31.3359 178.418 30.7383 178.957 30.1289L180.082 30.6211ZM169.289 43.9805C169.594 43.4883 169.969 42.8672 170.414 42.1172C170.859 41.3438 171.328 40.5586 171.82 39.7617C172.312 38.9414 172.793 38.1562 173.262 37.4062C173.73 36.6562 174.141 36.0234 174.492 35.5078C174.492 35.2969 174.457 34.957 174.387 34.4883C174.34 34.0195 174.188 33.5508 173.93 33.082C173.672 32.5898 173.262 32.168 172.699 31.8164C172.137 31.4648 171.352 31.2891 170.344 31.2891C169.617 31.2891 168.797 31.4062 167.883 31.6406C166.992 31.8516 166.031 32.2266 165 32.7656C163.992 33.2812 162.949 33.9727 161.871 34.8398C160.793 35.707 159.715 36.7852 158.637 38.0742C157.02 40.0195 155.766 41.9766 154.875 43.9453C154.008 45.8906 153.574 47.6484 153.574 49.2188C153.574 50.5547 153.879 51.5859 154.488 52.3125C155.098 53.0391 155.965 53.4023 157.09 53.4023C158.379 53.4023 159.586 53.1211 160.711 52.5586C161.836 51.9727 162.891 51.2227 163.875 50.3086C164.859 49.3945 165.797 48.3867 166.688 47.2852C167.578 46.1602 168.445 45.0586 169.289 43.9805ZM213.34 35.7539C213.34 36.7617 213.164 37.793 212.812 38.8477C212.461 39.8789 212.016 40.9219 211.477 41.9766C210.938 43.0078 210.363 44.0273 209.754 45.0352C209.145 46.043 208.57 47.0156 208.031 47.9531C207.492 48.8906 207.047 49.793 206.695 50.6602C206.344 51.5039 206.168 52.2773 206.168 52.9805C206.168 53.5195 206.285 53.8828 206.52 54.0703C206.754 54.2578 207.012 54.3516 207.293 54.3516C208.184 54.3516 209.18 53.918 210.281 53.0508C211.383 52.1602 212.496 51.0469 213.621 49.7109C214.77 48.375 215.906 46.9219 217.031 45.3516C218.156 43.7812 219.176 42.293 220.09 40.8867L221.355 41.8711C221.168 42.1523 220.828 42.7148 220.336 43.5586C219.844 44.3789 219.234 45.3281 218.508 46.4062C217.781 47.4609 216.961 48.5742 216.047 49.7461C215.156 50.8945 214.195 51.9609 213.164 52.9453C212.133 53.9062 211.066 54.7031 209.965 55.3359C208.887 55.9688 207.797 56.2852 206.695 56.2852C206.062 56.2852 205.488 56.1797 204.973 55.9688C204.457 55.7578 204.012 55.4648 203.637 55.0898C203.285 54.7148 203.004 54.2812 202.793 53.7891C202.582 53.2734 202.477 52.7344 202.477 52.1719C202.477 51.2578 202.676 50.2734 203.074 49.2188C203.496 48.1406 204.012 47.0391 204.621 45.9141C205.23 44.7891 205.898 43.6641 206.625 42.5391C207.352 41.3906 208.02 40.3008 208.629 39.2695C209.238 38.2383 209.742 37.2891 210.141 36.4219C210.562 35.5312 210.773 34.7695 210.773 34.1367C210.773 33.4102 210.574 32.8008 210.176 32.3086C209.801 31.8164 209.262 31.5703 208.559 31.5703C207.809 31.5703 206.941 31.8867 205.957 32.5195C204.973 33.1289 203.871 34.0312 202.652 35.2266C201.434 36.4219 200.098 37.8984 198.645 39.6562C197.215 41.3906 195.656 43.3711 193.969 45.5977C193.008 46.8867 192.07 48.1289 191.156 49.3242C190.758 49.8398 190.359 50.3672 189.961 50.9062C189.562 51.4453 189.164 51.9844 188.766 52.5234C188.367 53.0391 187.992 53.5312 187.641 54C187.289 54.4922 186.973 54.9141 186.691 55.2656L183.598 54L187.711 48.3398C188.297 47.543 188.895 46.6875 189.504 45.7734C190.113 44.8594 190.711 43.9219 191.297 42.9609C191.906 41.9766 192.48 40.9922 193.02 40.0078C193.559 39.0234 194.062 38.0625 194.531 37.125C195.211 35.7188 195.68 34.5586 195.938 33.6445C196.195 32.707 196.324 31.957 196.324 31.3945C196.324 30.7617 196.207 30.3516 195.973 30.1641C195.738 29.9531 195.41 29.8477 194.988 29.8477C194.543 29.8477 194.027 30.082 193.441 30.5508C192.879 30.9961 192.293 31.582 191.684 32.3086C191.074 33.0117 190.453 33.8203 189.82 34.7344C189.211 35.625 188.625 36.5156 188.062 37.4062C187.5 38.2969 186.973 39.1406 186.48 39.9375C185.988 40.7344 185.578 41.3789 185.25 41.8711L183.984 40.8867C185.18 39.0117 186.258 37.3008 187.219 35.7539C188.203 34.1836 189.141 32.8359 190.031 31.7109C190.945 30.5859 191.824 29.7188 192.668 29.1094C193.535 28.4766 194.449 28.1602 195.41 28.1602C195.926 28.1602 196.418 28.2656 196.887 28.4766C197.379 28.6875 197.801 29.0039 198.152 29.4258C198.527 29.8242 198.82 30.3164 199.031 30.9023C199.242 31.4883 199.348 32.168 199.348 32.9414C199.348 33.5508 199.277 34.1836 199.137 34.8398C200.168 33.832 201.129 33 202.02 32.3438C202.91 31.6875 203.73 31.1719 204.48 30.7969C205.23 30.3984 205.922 30.1172 206.555 29.9531C207.188 29.7891 207.762 29.707 208.277 29.707C208.723 29.707 209.238 29.7891 209.824 29.9531C210.41 30.1172 210.961 30.4219 211.477 30.8672C211.992 31.3125 212.426 31.9336 212.777 32.7305C213.152 33.5039 213.34 34.5117 213.34 35.7539ZM246.598 34.1367C248.215 33.9492 249.785 33.7383 251.309 33.5039C252.832 33.2695 254.309 33 255.738 32.6953C255.855 29.8125 256.336 27.0469 257.18 24.3984C258.023 21.75 259.125 19.2891 260.484 17.0156C261.844 14.7188 263.402 12.6445 265.16 10.793C266.918 8.91797 268.758 7.32422 270.68 6.01172C272.625 4.67578 274.594 3.64453 276.586 2.91797C278.602 2.19141 280.535 1.82812 282.387 1.82812C284.871 1.82812 286.758 2.35547 288.047 3.41016C289.359 4.44141 290.016 5.98828 290.016 8.05078C290.016 10.4648 289.312 12.9141 287.906 15.3984C286.5 17.8828 284.496 20.2734 281.895 22.5703C279.316 24.8438 276.188 26.9414 272.508 28.8633C268.852 30.7617 264.762 32.332 260.238 33.5742C260.238 35.0508 260.414 36.4688 260.766 37.8281C261.141 39.1641 261.691 40.3594 262.418 41.4141C263.145 42.4453 264.035 43.2656 265.09 43.875C266.168 44.4844 267.41 44.7891 268.816 44.7891C270.457 44.7891 272.168 44.4023 273.949 43.6289C275.73 42.8555 277.477 41.8711 279.188 40.6758C280.898 39.4805 282.504 38.1562 284.004 36.7031C285.504 35.2266 286.805 33.7852 287.906 32.3789C289.969 29.7305 291.633 27.75 292.898 26.4375C294.164 25.125 294.844 24.4219 294.938 24.3281L296.203 25.6641C294.047 27.75 292.137 29.9766 290.473 32.3438C288.832 34.7109 287.32 37.1133 285.938 39.5508C284.555 41.9648 283.254 44.3789 282.035 46.793C280.816 49.207 279.562 51.5156 278.273 53.7188C276.984 55.9219 275.602 57.9609 274.125 59.8359C272.672 61.7344 271.008 63.375 269.133 64.7578C267.258 66.1406 265.125 67.2188 262.734 67.9922C260.367 68.7891 257.625 69.1875 254.508 69.1875C251.602 69.1875 248.977 68.8359 246.633 68.1328C244.312 67.4531 242.332 66.4922 240.691 65.25C239.051 64.0312 237.797 62.5781 236.93 60.8906C236.039 59.2266 235.594 57.4102 235.594 55.4414C235.594 53.3555 235.957 51.5625 236.684 50.0625C237.387 48.5391 238.312 47.2969 239.461 46.3359C240.586 45.3516 241.863 44.6367 243.293 44.1914C244.746 43.7227 246.199 43.4883 247.652 43.4883C249.434 43.4883 250.957 43.7695 252.223 44.332C253.488 44.8945 254.578 45.5625 255.492 46.3359L254.473 47.7773C254.191 47.543 253.852 47.2852 253.453 47.0039C253.078 46.7227 252.633 46.4648 252.117 46.2305C251.625 45.9727 251.074 45.7617 250.465 45.5977C249.879 45.4336 249.246 45.3516 248.566 45.3516C247.23 45.3516 246.012 45.5977 244.91 46.0898C243.809 46.582 242.859 47.2852 242.062 48.1992C241.289 49.0898 240.691 50.1562 240.27 51.3984C239.848 52.6172 239.637 53.9648 239.637 55.4414C239.637 57.3867 240.059 59.0977 240.902 60.5742C241.723 62.0742 242.801 63.3164 244.137 64.3008C245.496 65.3086 247.02 66.0703 248.707 66.5859C250.418 67.1016 252.152 67.3594 253.91 67.3594C256.559 67.3594 258.855 66.9727 260.801 66.1992C262.77 65.4492 264.516 64.4297 266.039 63.1406C267.586 61.8516 268.969 60.3398 270.188 58.6055C271.43 56.8711 272.637 55.0312 273.809 53.0859C274.98 51.1172 276.188 49.1133 277.43 47.0742C278.672 45.0117 280.09 42.9961 281.684 41.0273C279.129 43.1367 276.621 44.7539 274.16 45.8789C271.723 46.9805 269.355 47.5312 267.059 47.5312C265.629 47.5312 264.246 47.2734 262.91 46.7578C261.574 46.2188 260.379 45.4219 259.324 44.3672C258.293 43.2891 257.449 41.9531 256.793 40.3594C256.137 38.7422 255.773 36.8438 255.703 34.6641C254.273 34.9688 252.809 35.2266 251.309 35.4375C249.809 35.6484 248.285 35.8242 246.738 35.9648L246.598 34.1367ZM283.512 3.83203C281.707 3.83203 279.902 4.18359 278.098 4.88672C276.293 5.58984 274.559 6.57422 272.895 7.83984C271.254 9.10547 269.707 10.6055 268.254 12.3398C266.801 14.0742 265.512 15.9727 264.387 18.0352C263.285 20.0742 262.371 22.2422 261.645 24.5391C260.941 26.8359 260.496 29.168 260.309 31.5352C265.066 30.1992 269.191 28.5586 272.684 26.6133C276.176 24.6445 279.07 22.582 281.367 20.4258C283.664 18.2695 285.375 16.1133 286.5 13.957C287.625 11.8008 288.188 9.83203 288.188 8.05078C288.188 6.66797 287.789 5.625 286.992 4.92188C286.219 4.19531 285.059 3.83203 283.512 3.83203ZM320.215 30.6211C319.91 31.2305 319.477 32.0273 318.914 33.0117C318.375 33.9961 317.789 35.0859 317.156 36.2812C316.523 37.4531 315.879 38.6836 315.223 39.9727C314.59 41.2617 314.004 42.5273 313.465 43.7695C312.949 44.9883 312.516 46.1484 312.164 47.25C311.836 48.3281 311.672 49.2422 311.672 49.9922C311.672 50.7422 311.812 51.2344 312.094 51.4688C312.398 51.6797 312.785 51.7852 313.254 51.7852C313.934 51.7852 314.625 51.5859 315.328 51.1875C316.055 50.7891 316.758 50.2734 317.438 49.6406C318.141 49.0078 318.82 48.293 319.477 47.4961C320.133 46.6992 320.742 45.9023 321.305 45.1055C321.891 44.2852 322.418 43.5117 322.887 42.7852C323.355 42.0352 323.754 41.4023 324.082 40.8867L325.348 41.8711C324.949 42.6211 324.48 43.4297 323.941 44.2969C323.402 45.1641 322.805 46.043 322.148 46.9336C321.516 47.8008 320.824 48.6445 320.074 49.4648C319.324 50.2852 318.527 51.0117 317.684 51.6445C316.863 52.2773 315.996 52.7812 315.082 53.1562C314.168 53.5312 313.23 53.7188 312.27 53.7188C310.863 53.7188 309.832 53.2969 309.176 52.4531C308.52 51.6094 308.191 50.5195 308.191 49.1836C308.191 49.0898 308.191 48.8906 308.191 48.5859C308.215 48.2578 308.25 48 308.297 47.8125C307.125 49.2891 306 50.5078 304.922 51.4688C303.867 52.4297 302.836 53.1914 301.828 53.7539C300.844 54.3164 299.883 54.7031 298.945 54.9141C298.031 55.1484 297.152 55.2656 296.309 55.2656C295.418 55.2656 294.574 55.1133 293.777 54.8086C293.004 54.5273 292.324 54.1055 291.738 53.543C291.129 52.9805 290.66 52.2891 290.332 51.4688C289.98 50.6484 289.805 49.6992 289.805 48.6211C289.805 47.2852 290.109 45.7617 290.719 44.0508C291.305 42.3164 292.359 40.4531 293.883 38.4609C295.172 36.75 296.508 35.3086 297.891 34.1367C299.297 32.9648 300.668 32.0273 302.004 31.3242C303.363 30.5977 304.652 30.082 305.871 29.7773C307.09 29.4727 308.18 29.3203 309.141 29.3203C311.297 29.3203 312.926 29.6836 314.027 30.4102C315.129 31.1133 315.797 32.2031 316.031 33.6797C316.5 33.0938 316.992 32.5078 317.508 31.9219C318.023 31.3359 318.551 30.7383 319.09 30.1289L320.215 30.6211ZM309.422 43.9805C309.727 43.4883 310.102 42.8672 310.547 42.1172C310.992 41.3438 311.461 40.5586 311.953 39.7617C312.445 38.9414 312.926 38.1562 313.395 37.4062C313.863 36.6562 314.273 36.0234 314.625 35.5078C314.625 35.2969 314.59 34.957 314.52 34.4883C314.473 34.0195 314.32 33.5508 314.062 33.082C313.805 32.5898 313.395 32.168 312.832 31.8164C312.27 31.4648 311.484 31.2891 310.477 31.2891C309.75 31.2891 308.93 31.4062 308.016 31.6406C307.125 31.8516 306.164 32.2266 305.133 32.7656C304.125 33.2812 303.082 33.9727 302.004 34.8398C300.926 35.707 299.848 36.7852 298.77 38.0742C297.152 40.0195 295.898 41.9766 295.008 43.9453C294.141 45.8906 293.707 47.6484 293.707 49.2188C293.707 50.5547 294.012 51.5859 294.621 52.3125C295.23 53.0391 296.098 53.4023 297.223 53.4023C298.512 53.4023 299.719 53.1211 300.844 52.5586C301.969 51.9727 303.023 51.2227 304.008 50.3086C304.992 49.3945 305.93 48.3867 306.82 47.2852C307.711 46.1602 308.578 45.0586 309.422 43.9805ZM349.57 2.84766C350.391 2.84766 351.07 3.04688 351.609 3.44531C352.172 3.84375 352.453 4.57031 352.453 5.625C352.453 6.35156 352.301 7.21875 351.996 8.22656C351.715 9.23438 351.316 10.3359 350.801 11.5312C350.309 12.7031 349.723 13.9453 349.043 15.2578C348.363 16.5469 347.625 17.8359 346.828 19.125C346.055 20.4141 345.234 21.668 344.367 22.8867C343.523 24.1055 342.68 25.2305 341.836 26.2617C340.148 28.3477 338.684 30.1055 337.441 31.5352C336.223 32.9648 335.168 34.1836 334.277 35.1914C333.387 36.1758 332.637 36.9844 332.027 37.6172C331.418 38.2266 330.879 38.7539 330.41 39.1992C329.941 39.6445 329.508 40.0547 329.109 40.4297C328.711 40.7812 328.301 41.1797 327.879 41.625C327.691 42.5156 327.598 43.3711 327.598 44.1914C327.621 44.9883 327.633 45.7266 327.633 46.4062C327.633 48.4453 327.961 49.957 328.617 50.9414C329.273 51.9258 330.199 52.418 331.395 52.418C332.191 52.418 332.988 52.2188 333.785 51.8203C334.605 51.3984 335.414 50.8594 336.211 50.2031C337.008 49.5469 337.781 48.8086 338.531 47.9883C339.281 47.1445 339.984 46.3008 340.641 45.457C341.32 44.5898 341.93 43.7578 342.469 42.9609C343.008 42.1641 343.477 41.4727 343.875 40.8867L345.176 41.8711C345.105 41.9648 344.871 42.3398 344.473 42.9961C344.098 43.6289 343.594 44.4023 342.961 45.3164C342.328 46.2305 341.578 47.2148 340.711 48.2695C339.844 49.3008 338.906 50.2617 337.898 51.1523C336.891 52.043 335.824 52.7812 334.699 53.3672C333.598 53.9531 332.473 54.2461 331.324 54.2461C330.363 54.2461 329.438 54.0703 328.547 53.7188C327.68 53.3438 326.906 52.7695 326.227 51.9961C325.57 51.1992 325.031 50.1914 324.609 48.9727C324.211 47.7539 324.012 46.2891 324.012 44.5781C324.012 42.4453 324.258 40.2188 324.75 37.8984C325.266 35.5547 325.957 33.2109 326.824 30.8672C327.691 28.5 328.711 26.168 329.883 23.8711C331.055 21.5742 332.297 19.3945 333.609 17.332C334.945 15.2461 336.328 13.3242 337.758 11.5664C339.211 9.78516 340.629 8.25 342.012 6.96094C343.418 5.67187 344.766 4.66406 346.055 3.9375C347.344 3.21094 348.516 2.84766 349.57 2.84766ZM328.512 38.4961C330.504 36.4336 332.426 34.3477 334.277 32.2383C336.152 30.1055 337.898 28.0078 339.516 25.9453C341.156 23.8594 342.656 21.8438 344.016 19.8984C345.375 17.9297 346.535 16.0781 347.496 14.3438C348.457 12.6094 349.207 11.0273 349.746 9.59766C350.285 8.16797 350.555 6.9375 350.555 5.90625C350.555 5.71875 350.461 5.47266 350.273 5.16797C350.086 4.83984 349.863 4.67578 349.605 4.67578C348.879 4.67578 347.918 5.15625 346.723 6.11719C345.527 7.07812 344.227 8.39063 342.82 10.0547C341.438 11.6953 339.996 13.6172 338.496 15.8203C337.02 18.0234 335.625 20.3789 334.312 22.8867C333 25.3945 331.828 27.9844 330.797 30.6562C329.766 33.3281 329.004 35.9414 328.512 38.4961ZM369.328 2.84766C370.148 2.84766 370.828 3.04688 371.367 3.44531C371.93 3.84375 372.211 4.57031 372.211 5.625C372.211 6.35156 372.059 7.21875 371.754 8.22656C371.473 9.23438 371.074 10.3359 370.559 11.5312C370.066 12.7031 369.48 13.9453 368.801 15.2578C368.121 16.5469 367.383 17.8359 366.586 19.125C365.812 20.4141 364.992 21.668 364.125 22.8867C363.281 24.1055 362.438 25.2305 361.594 26.2617C359.906 28.3477 358.441 30.1055 357.199 31.5352C355.98 32.9648 354.926 34.1836 354.035 35.1914C353.145 36.1758 352.395 36.9844 351.785 37.6172C351.176 38.2266 350.637 38.7539 350.168 39.1992C349.699 39.6445 349.266 40.0547 348.867 40.4297C348.469 40.7812 348.059 41.1797 347.637 41.625C347.449 42.5156 347.355 43.3711 347.355 44.1914C347.379 44.9883 347.391 45.7266 347.391 46.4062C347.391 48.4453 347.719 49.957 348.375 50.9414C349.031 51.9258 349.957 52.418 351.152 52.418C351.949 52.418 352.746 52.2188 353.543 51.8203C354.363 51.3984 355.172 50.8594 355.969 50.2031C356.766 49.5469 357.539 48.8086 358.289 47.9883C359.039 47.1445 359.742 46.3008 360.398 45.457C361.078 44.5898 361.688 43.7578 362.227 42.9609C362.766 42.1641 363.234 41.4727 363.633 40.8867L364.934 41.8711C364.863 41.9648 364.629 42.3398 364.23 42.9961C363.855 43.6289 363.352 44.4023 362.719 45.3164C362.086 46.2305 361.336 47.2148 360.469 48.2695C359.602 49.3008 358.664 50.2617 357.656 51.1523C356.648 52.043 355.582 52.7812 354.457 53.3672C353.355 53.9531 352.23 54.2461 351.082 54.2461C350.121 54.2461 349.195 54.0703 348.305 53.7188C347.438 53.3438 346.664 52.7695 345.984 51.9961C345.328 51.1992 344.789 50.1914 344.367 48.9727C343.969 47.7539 343.77 46.2891 343.77 44.5781C343.77 42.4453 344.016 40.2188 344.508 37.8984C345.023 35.5547 345.715 33.2109 346.582 30.8672C347.449 28.5 348.469 26.168 349.641 23.8711C350.812 21.5742 352.055 19.3945 353.367 17.332C354.703 15.2461 356.086 13.3242 357.516 11.5664C358.969 9.78516 360.387 8.25 361.77 6.96094C363.176 5.67187 364.523 4.66406 365.812 3.9375C367.102 3.21094 368.273 2.84766 369.328 2.84766ZM348.27 38.4961C350.262 36.4336 352.184 34.3477 354.035 32.2383C355.91 30.1055 357.656 28.0078 359.273 25.9453C360.914 23.8594 362.414 21.8438 363.773 19.8984C365.133 17.9297 366.293 16.0781 367.254 14.3438C368.215 12.6094 368.965 11.0273 369.504 9.59766C370.043 8.16797 370.312 6.9375 370.312 5.90625C370.312 5.71875 370.219 5.47266 370.031 5.16797C369.844 4.83984 369.621 4.67578 369.363 4.67578C368.637 4.67578 367.676 5.15625 366.48 6.11719C365.285 7.07812 363.984 8.39063 362.578 10.0547C361.195 11.6953 359.754 13.6172 358.254 15.8203C356.777 18.0234 355.383 20.3789 354.07 22.8867C352.758 25.3945 351.586 27.9844 350.555 30.6562C349.523 33.3281 348.762 35.9414 348.27 38.4961ZM366.305 45.9844C366.258 46.2656 366.223 46.5469 366.199 46.8281C366.176 47.1094 366.164 47.3906 366.164 47.6719C366.164 48.5156 366.281 49.3242 366.516 50.0977C366.773 50.8477 367.137 51.5156 367.605 52.1016C368.098 52.6641 368.695 53.1094 369.398 53.4375C370.125 53.7656 370.945 53.9297 371.859 53.9297C374.93 53.9297 377.895 52.8867 380.754 50.8008C383.613 48.7148 386.461 45.4102 389.297 40.8867L390.492 41.9414C388.945 44.5195 387.375 46.6992 385.781 48.4805C384.188 50.2383 382.594 51.668 381 52.7695C379.43 53.8711 377.883 54.668 376.359 55.1602C374.836 55.6523 373.383 55.8984 372 55.8984C370.992 55.8984 369.926 55.7578 368.801 55.4766C367.676 55.1953 366.633 54.7266 365.672 54.0703C364.734 53.4141 363.961 52.5352 363.352 51.4336C362.719 50.332 362.402 48.9609 362.402 47.3203C362.402 45.5625 362.707 43.875 363.316 42.2578C363.902 40.6172 364.676 39.0938 365.637 37.6875C366.598 36.2812 367.699 35.0039 368.941 33.8555C370.184 32.6836 371.438 31.6875 372.703 30.8672C373.992 30.0469 375.246 29.4141 376.465 28.9688C377.684 28.5 378.762 28.2656 379.699 28.2656C380.309 28.2656 380.93 28.3594 381.562 28.5469C382.195 28.7344 382.758 29.0273 383.25 29.4258C383.766 29.8242 384.176 30.3516 384.48 31.0078C384.809 31.6641 384.973 32.4492 384.973 33.3633C384.973 34.6055 384.68 35.7773 384.094 36.8789C383.531 37.957 382.77 38.9648 381.809 39.9023C380.848 40.8164 379.734 41.6484 378.469 42.3984C377.203 43.125 375.879 43.7461 374.496 44.2617C373.113 44.7773 371.719 45.1875 370.312 45.4922C368.906 45.7969 367.57 45.9609 366.305 45.9844ZM366.586 44.4727C368.156 44.3086 369.633 43.9805 371.016 43.4883C372.398 42.9961 373.664 42.3984 374.812 41.6953C375.961 40.9688 376.98 40.1836 377.871 39.3398C378.785 38.4961 379.547 37.6406 380.156 36.7734C380.766 35.9062 381.234 35.0742 381.562 34.2773C381.891 33.4805 382.055 32.7656 382.055 32.1328C382.055 31.5 381.879 30.9961 381.527 30.6211C381.199 30.2461 380.801 30.0586 380.332 30.0586C379.301 30.0586 378.141 30.4336 376.852 31.1836C375.562 31.9102 374.273 32.9297 372.984 34.2422C371.695 35.5312 370.477 37.0547 369.328 38.8125C368.203 40.5703 367.289 42.457 366.586 44.4727ZM411.48 41.8711C411.129 42.3867 410.707 43.0898 410.215 43.9805C409.746 44.8477 409.195 45.7969 408.562 46.8281C407.93 47.8359 407.227 48.8672 406.453 49.9219C405.703 50.9766 404.871 51.9258 403.957 52.7695C403.066 53.6133 402.094 54.3047 401.039 54.8438C399.984 55.3828 398.859 55.6523 397.664 55.6523C397.008 55.6523 396.387 55.5469 395.801 55.3359C395.215 55.1484 394.699 54.8438 394.254 54.4219C393.809 54 393.457 53.4844 393.199 52.875C392.941 52.2422 392.812 51.5039 392.812 50.6602C392.812 49.5117 393.035 48.3164 393.48 47.0742C393.949 45.8086 394.488 44.5898 395.098 43.418C395.707 42.2461 396.316 41.1797 396.926 40.2188C397.535 39.2344 397.98 38.4492 398.262 37.8633C398.543 37.2773 398.684 36.7734 398.684 36.3516C398.684 36.0469 398.578 35.7773 398.367 35.543C398.18 35.3086 397.934 35.0859 397.629 34.875C397.348 34.6406 397.043 34.4062 396.715 34.1719C396.41 33.9141 396.152 33.6094 395.941 33.2578C395.355 34.1953 394.758 35.1445 394.148 36.1055C393.609 36.9258 393.023 37.8516 392.391 38.8828C391.758 39.8906 391.148 40.8867 390.562 41.8711L389.297 40.8867L396.82 29.1094L397.84 29.6367C397.793 29.7773 397.711 30 397.594 30.3047C397.5 30.6094 397.453 30.9375 397.453 31.2891C397.453 31.5469 397.488 31.8047 397.559 32.0625C397.652 32.2969 397.828 32.5195 398.086 32.7305C399.023 33.5742 399.762 34.2305 400.301 34.6992C400.84 35.1445 401.227 35.5078 401.461 35.7891C401.719 36.0469 401.871 36.2695 401.918 36.457C401.988 36.6211 402.023 36.8438 402.023 37.125C402.023 37.4062 401.977 37.7461 401.883 38.1445C401.789 38.543 401.625 39.0234 401.391 39.5859C401.18 40.1484 400.875 40.8164 400.477 41.5898C400.102 42.3398 399.621 43.2188 399.035 44.2266C398.684 44.8359 398.332 45.457 397.98 46.0898C397.652 46.6992 397.348 47.3203 397.066 47.9531C396.809 48.5859 396.598 49.2188 396.434 49.8516C396.27 50.4844 396.188 51.0938 396.188 51.6797C396.188 52.125 396.246 52.4883 396.363 52.7695C396.504 53.0273 396.68 53.2266 396.891 53.3672C397.102 53.5078 397.324 53.6016 397.559 53.6484C397.816 53.6953 398.062 53.7188 398.297 53.7188C399.07 53.7188 399.832 53.4961 400.582 53.0508C401.355 52.582 402.105 51.9844 402.832 51.2578C403.582 50.5312 404.297 49.7109 404.977 48.7969C405.68 47.8594 406.348 46.9102 406.98 45.9492C407.613 44.9883 408.199 44.0742 408.738 43.207C409.277 42.3164 409.758 41.543 410.18 40.8867L411.48 41.8711ZM425.754 46.1602C424.84 47.168 423.914 48.1055 422.977 48.9727C422.039 49.8164 421.113 50.5547 420.199 51.1875C419.285 51.8203 418.383 52.3242 417.492 52.6992C416.625 53.0508 415.781 53.2266 414.961 53.2266C414.047 53.2266 413.215 53.0625 412.465 52.7344C411.738 52.3828 411.105 51.8906 410.566 51.2578C410.051 50.625 409.652 49.875 409.371 49.0078C409.09 48.1406 408.949 47.1797 408.949 46.125C408.949 44.7188 409.242 43.2539 409.828 41.7305C410.414 40.207 411.164 38.7305 412.078 37.3008C413.016 35.8477 414.047 34.4766 415.172 33.1875C416.32 31.8984 417.434 30.7852 418.512 29.8477L420.023 30.9023C419.742 31.3008 419.355 31.8516 418.863 32.5547C418.371 33.2578 417.844 34.0781 417.281 35.0156C416.719 35.9297 416.145 36.9258 415.559 38.0039C414.996 39.082 414.48 40.1836 414.012 41.3086C413.543 42.4336 413.156 43.5586 412.852 44.6836C412.57 45.8086 412.43 46.8633 412.43 47.8477C412.43 48.3164 412.465 48.7734 412.535 49.2188C412.629 49.6406 412.77 50.0156 412.957 50.3438C413.168 50.6719 413.438 50.9297 413.766 51.1172C414.094 51.3047 414.516 51.3984 415.031 51.3984C415.852 51.3984 416.742 51.1523 417.703 50.6602C418.688 50.1445 419.695 49.4531 420.727 48.5859C421.781 47.6953 422.848 46.6641 423.926 45.4922C425.027 44.3203 426.105 43.0664 427.16 41.7305C428.215 40.3945 429.234 39.0234 430.219 37.6172C431.203 36.1875 432.117 34.7812 432.961 33.3984C433.711 32.1562 434.461 30.9141 435.211 29.6719C435.961 28.4062 436.711 27.1758 437.461 25.9805L439.113 26.8242C439.09 26.8711 438.867 27.3164 438.445 28.1602C438.047 28.9805 437.508 30.1055 436.828 31.5352C436.148 32.9414 435.352 34.582 434.438 36.457C433.547 38.3086 432.598 40.2891 431.59 42.3984C430.582 44.4844 429.551 46.6289 428.496 48.832C427.465 51.0352 426.457 53.1797 425.473 55.2656C428.777 53.4375 431.766 51.2695 434.438 48.7617C437.133 46.2539 439.441 43.6289 441.363 40.8867L442.664 41.8711C440.625 44.9883 438.094 47.8711 435.07 50.5195C432.047 53.1445 428.402 55.6641 424.137 58.0781C422.191 62.25 420.281 66.0586 418.406 69.5039C416.555 72.9492 414.691 75.9023 412.816 78.3633C410.965 80.8242 409.113 82.7227 407.262 84.0586C405.387 85.418 403.488 86.0977 401.566 86.0977C400.301 86.0977 399.246 85.6758 398.402 84.832C397.559 83.9883 397.137 82.7812 397.137 81.2109C397.137 79.8984 397.43 78.5508 398.016 77.168C398.602 75.7852 399.41 74.3906 400.441 72.9844C401.473 71.6016 402.703 70.2188 404.133 68.8359C405.539 67.4766 407.086 66.1641 408.773 64.8984C410.438 63.6328 412.184 62.4258 414.012 61.2773C415.863 60.1289 417.738 59.0742 419.637 58.1133C420.129 57.082 420.656 55.9922 421.219 54.8438C421.781 53.7188 422.332 52.6289 422.871 51.5742C423.41 50.4961 423.926 49.4883 424.418 48.5508C424.934 47.5898 425.379 46.793 425.754 46.1602ZM418.02 61.5234C415.324 63.1875 412.816 64.957 410.496 66.832C408.199 68.7305 406.207 70.5938 404.52 72.4219C402.809 74.2734 401.473 76.0078 400.512 77.625C399.551 79.2422 399.07 80.6133 399.07 81.7383C399.07 82.4883 399.293 83.0859 399.738 83.5312C400.16 83.9766 400.711 84.1992 401.391 84.1992C402.305 84.1992 403.254 83.8828 404.238 83.25C405.199 82.6406 406.172 81.7969 407.156 80.7188C408.117 79.6406 409.078 78.3633 410.039 76.8867C411 75.4336 411.938 73.8633 412.852 72.1758C413.789 70.5117 414.691 68.7656 415.559 66.9375C416.426 65.1328 417.246 63.3281 418.02 61.5234Z" fill="#E5BA73"/>
</svg>
